<svg xmlns="http://www.w3.org/2000/svg" width="96" height="96">
    <path style="stroke:none;fill-rule:nonzero;fill:#000;fill-opacity:1" d="m70.398 37.922 7.364-12.723c.636-1.238.16-2.758-1.043-3.398a2.546 2.546 0 0 0-3.32.879l-7.52 12.96a45.846 45.846 0 0 0-35.758 0l-7.52-12.96c-.761-1.16-2.32-1.52-3.48-.801a2.551 2.551 0 0 0-.883 3.32l7.364 12.723A43.118 43.118 0 0 0 4 72h88a43.118 43.118 0 0 0-21.602-34.078ZM28 61a5 5 0 1 1 0-10 5 5 0 0 1 0 10Zm40 0a5 5 0 1 1 0-10 5 5 0 0 1 0 10Zm0 0"/>
</svg>
