<svg xmlns="http://www.w3.org/2000/svg" width="96" height="96">
    <path style="stroke:none;fill-rule:nonzero;fill:#000;fill-opacity:1" d="M39.313 40.273c-2.739 0-4.899 2.399-4.899 5.329 0 2.925 2.211 5.328 4.898 5.328 2.735 0 4.895-2.403 4.895-5.328.05-2.93-2.16-5.329-4.895-5.329Zm17.519 0c-2.734 0-4.895 2.399-4.895 5.329 0 2.925 2.208 5.328 4.895 5.328 2.734 0 4.895-2.403 4.895-5.328 0-2.93-2.16-5.329-4.895-5.329Zm0 0"/>
    <path style="stroke:none;fill-rule:nonzero;fill:#000;fill-opacity:1" d="M80.16 0H15.84C10.414 0 6 4.414 6 9.887v64.898c0 5.473 4.414 9.887 9.84 9.887h54.433l-2.546-8.879 6.144 5.71 5.809 5.376L90 96V9.887C90 4.414 85.586 0 80.16 0ZM61.633 62.688s-1.73-2.063-3.168-3.887c6.289-1.778 8.687-5.711 8.687-5.711-1.968 1.293-3.84 2.207-5.52 2.832-2.402 1.008-4.702 1.68-6.96 2.062-4.11.758-8.328.743-12.434-.047a40.336 40.336 0 0 1-7.054-2.066 27.698 27.698 0 0 1-3.504-1.633c-.145-.093-.29-.14-.434-.238-.094-.047-.14-.098-.191-.145-.864-.48-1.344-.816-1.344-.816s2.305 3.84 8.402 5.664c-1.441 1.824-3.218 3.984-3.218 3.984-10.606-.335-14.637-7.296-14.637-7.296 0-15.453 6.91-27.985 6.91-27.985 6.91-5.183 13.488-5.039 13.488-5.039l.48.578c-8.64 2.496-12.624 6.285-12.624 6.285s1.054-.574 2.832-1.39c5.136-2.254 9.215-2.88 10.894-3.024.29-.046.532-.097.817-.097a39.152 39.152 0 0 1 24.144 4.511s-3.793-3.597-11.953-6.093l.676-.77s6.574-.144 13.484 5.04c0 0 6.914 12.53 6.914 27.984 0 0-4.082 6.96-14.687 7.297Zm0 0"/>
</svg>
