<svg xmlns="http://www.w3.org/2000/svg" width="96" height="96">
    <path style="stroke:none;fill-rule:nonzero;fill:#000;fill-opacity:1" d="M14.68 24.559S7.28 31.64 6.879 39.12v1.399c.32 6.039 4.883 9.601 4.883 9.601 7.316 7.16 25.039 16.16 29.199 18.2 0 0 .238.12.398-.04l.082-.16v-.16C30.078 43.199 14.68 24.559 14.68 24.559Zm23.922 49.84c-.082-.32-.403-.32-.403-.32L8.68 75.12c3.2 5.719 8.602 10.117 14.243 8.8 3.84-1 12.637-7.12 15.52-9.202.238-.2.16-.36.16-.36Zm.32-3.118C25.96 62.52.84 49.121.84 49.121c-.602 1.84-.8 3.598-.84 5.2v.28c0 4.278 1.602 7.278 1.602 7.278 3.199 6.762 9.359 8.8 9.359 8.8 2.8 1.2 5.598 1.243 5.598 1.243.48.078 17.601 0 22.16 0 .203 0 .32-.203.32-.203v-.239c0-.12-.117-.199-.117-.199Zm-2.684-58.52A13.674 13.674 0 0 0 25.961 25.36V27c.117 2.398.64 4.2.64 4.2 2.637 11.6 15.438 30.6 18.2 34.6.199.2.398.122.398.122.16-.07.254-.23.242-.402C49.68 23.12 41 11.84 41 11.84c-1.281.082-4.762.922-4.762.922Zm33.2 9.079s-1.961-7.2-9.762-9.121c0 0-2.281-.559-4.68-.88 0 0-8.719 11.24-4.48 53.72.039.28.242.32.242.32.277.121.398-.117.398-.117 2.88-4.121 15.602-23.043 18.2-34.563 0 0 1.44-5.597.082-9.36ZM57.758 74.12s-.281 0-.363.2c0 0-.04.28.12.398 2.801 2.043 11.4 8 15.52 9.203 0 0 .64.2 1.723.238h.558c2.758-.082 7.598-1.48 12-9.039l-29.601-1Zm31.316-33.64c.563-8.243-7.758-15.88-7.758-15.922 0 0-15.402 18.64-26.68 43.203 0 0-.12.316.079.52l.16.038h.242c4.238-2.12 21.84-11.082 29.117-18.16 0 0 4.602-3.719 4.84-9.68Zm6.082 8.558s-25.12 13.48-38.082 22.2c0 0-.199.16-.117.44 0 0 .117.243.277.243 4.641 0 22.243 0 22.68-.082 0 0 2.281-.078 5.082-1.16 0 0 6.238-2 9.48-9.078 0 0 2.919-5.801.68-12.563Zm0 0"/>
</svg>
